<svg width="33" height="32" viewBox="0 0 33 32" fill="none" xmlns="http://www.w3.org/2000/svg">
<g clip-path="url(#clip0_576_524)">
<path d="M22.372 0L10.4424 0C4.95273 0 0.500977 4.45175 0.500977 9.94139L0.500977 21.8711C0.500977 27.3607 4.95273 31.8124 10.4424 31.8124H22.372C27.8617 31.8124 32.3134 27.3607 32.3134 21.8711V9.94139C32.3134 4.45175 27.8617 0 22.372 0ZM29.331 21.8711C29.331 25.7084 26.2094 28.83 22.372 28.83H10.4424C6.60499 28.83 3.48339 25.7084 3.48339 21.8711L3.48339 9.94139C3.48339 6.10401 6.60499 2.98242 10.4424 2.98242L22.372 2.98242C26.2094 2.98242 29.331 6.10401 29.331 9.94139V21.8711Z" fill="#5CBEFF"/>
<path d="M16.4072 7.95312C12.0151 7.95312 8.4541 11.5141 8.4541 15.9062C8.4541 20.2983 12.0151 23.8593 16.4072 23.8593C20.7993 23.8593 24.3603 20.2983 24.3603 15.9062C24.3603 11.5141 20.7993 7.95313 16.4072 7.95312ZM16.4072 20.8769C13.6674 20.8769 11.4365 18.6461 11.4365 15.9062C11.4365 13.1644 13.6674 10.9355 16.4072 10.9355C19.1471 10.9355 21.3779 13.1644 21.3779 15.9062C21.3779 18.6461 19.1471 20.8769 16.4072 20.8769Z" fill="#5CBEFF"/>
<path d="M24.9567 8.41638C25.542 8.41638 26.0165 7.94191 26.0165 7.35663C26.0165 6.77134 25.542 6.29688 24.9567 6.29688C24.3714 6.29688 23.897 6.77134 23.897 7.35663C23.897 7.94191 24.3714 8.41638 24.9567 8.41638Z" fill="#5CBEFF"/>
</g>
<defs>
<clipPath id="clip0_576_524">
<rect width="31.8124" height="31.8124" fill="white" transform="translate(0.500977)"/>
</clipPath>
</defs>
</svg>
