<svg width="126" height="74" viewBox="0 0 126 74" fill="none" xmlns="http://www.w3.org/2000/svg">
<path d="M125.671 71.4397C121.111 72.5997 118.291 71.4897 115.761 67.6897C110.081 59.1797 103.811 51.0597 97.7608 42.7897C96.9808 41.7197 96.1708 40.6697 95.1608 39.3397C88.0008 48.9997 80.8508 58.1997 74.1408 67.7697C71.7408 71.1897 69.2208 72.6797 64.7408 71.4697L91.6608 35.3397L66.6008 2.70967C70.9108 1.86967 73.8908 2.29967 76.5308 6.15967C82.3608 14.6797 88.7908 22.7897 95.2008 31.3697C101.651 22.8197 108.001 14.6997 114.001 6.25967C116.411 2.83967 119.001 1.53967 123.331 2.79967C120.051 7.14967 116.841 11.4297 113.611 15.6797C109.251 21.4097 104.971 27.2097 100.451 32.8197C98.8408 34.8197 99.1008 36.1197 100.541 38.0097C108.901 48.9997 117.161 60.0997 125.671 71.4397ZM0.330781 34.7397C1.05078 31.1297 1.53078 27.4497 2.53078 23.9097C8.53078 2.47967 33.1308 -6.43033 50.0308 6.84967C59.9308 14.6397 62.3908 25.6197 61.9008 37.9997H6.10078C5.26078 60.2097 21.2508 73.6197 41.6308 66.7797C48.7808 64.3797 52.9908 58.7797 55.1008 51.7797C56.1708 48.2697 57.9408 47.7197 61.2408 48.7197C59.5508 57.4797 55.7208 64.7997 47.7208 69.3797C35.7208 76.2397 18.5908 74.0197 9.58078 64.4897C4.26078 58.8897 2.00078 51.9197 1.00078 44.3897C0.850781 43.1897 0.540781 42.0097 0.300781 40.8197C0.320781 38.793 0.330781 36.7663 0.330781 34.7397ZM6.20078 33.2497H56.6308C56.3008 17.1897 46.3008 5.77967 32.6308 5.67967C17.6308 5.55967 6.85078 16.6997 6.20078 33.2497Z" fill="white"/>
</svg>
