<svg width="50" height="42" viewBox="0 0 50 42" fill="none" xmlns="http://www.w3.org/2000/svg">
<path d="M46.2458 24.1869H45.8083V21.5561C45.8083 15.3056 43.71 9.94391 39.7402 6.05054C35.9824 2.36479 30.7897 0.334961 25.1188 0.334961C19.4478 0.334961 14.2551 2.36479 10.4974 6.05054C6.52751 9.94368 4.42927 15.3056 4.42927 21.5561V24.1869H3.75417C1.6842 24.1869 0 25.8711 0 27.9413V37.9101C0 39.9804 1.6842 41.6646 3.75441 41.6646H8.30126C9.0702 41.6646 9.6959 41.0389 9.6959 40.2699V25.5813C9.6959 24.8124 9.0702 24.1867 8.30126 24.1867H6.80497V21.5559C6.80497 10.4599 14.3359 2.71018 25.119 2.71018C35.9022 2.71018 43.4331 10.4596 43.4331 21.5559V24.1867H41.6992C40.9303 24.1867 40.3046 24.8121 40.3046 25.5813V40.2699C40.3046 41.0389 40.9303 41.6646 41.6992 41.6646H46.2461C48.3163 41.6646 50.0005 39.9804 50.0005 37.9101V27.9413C50 25.8711 48.3158 24.1869 46.2458 24.1869Z" fill="white"/>
<rect x="11" y="27.9995" width="1" height="11" rx="0.5" fill="white"/>
<rect width="1" height="11" rx="0.5" transform="matrix(-1 0 0 1 39 27.9995)" fill="white"/>
<rect x="13" y="29.9995" width="1" height="7" rx="0.5" fill="white"/>
<rect width="1" height="7" rx="0.5" transform="matrix(-1 0 0 1 37 29.9995)" fill="white"/>
</svg>
