<svg width="57" height="56" viewBox="0 0 57 56" fill="none" xmlns="http://www.w3.org/2000/svg">
<g clip-path="url(#clip0_1076_426)">
<path d="M14.5597 27.9442C6.54677 43.3165 0 55.9205 0 55.9442C0 55.976 2.34429 55.9998 5.20605 55.9998H10.4043L19.7814 36.4712L29.1586 16.9425L29.5036 17.6961C29.6917 18.1085 33.6355 26.8893 38.2613 37.2168L46.6741 55.9998H51.841C54.6792 55.9998 57 55.9839 57 55.968C57 55.7777 29.2919 0.0552888 29.1821 0.0156288C29.1429 0.00769674 22.5648 12.572 14.5597 27.9442Z" fill="white"/>
<path d="M28.9937 32.918C29.0486 32.918 39.3431 55.8256 39.3431 55.9367C39.3431 55.9763 37.7436 56.0001 35.7992 56.0001H32.2475L30.6402 52.7877C29.7542 51.0268 29.0172 49.5752 28.9937 49.5752C28.9702 49.5752 28.2175 51.0268 27.3237 52.7877L25.685 56.0001H21.6472C19.248 56.0001 17.6251 55.9684 17.6407 55.9287C17.6564 55.8891 20.2046 50.6936 23.3015 44.3877C26.4063 38.0817 28.9702 32.918 28.9937 32.918Z" fill="#5CBEFF"/>
</g>
<defs>
<clipPath id="clip0_1076_426">
<rect width="57" height="56" fill="white"/>
</clipPath>
</defs>
</svg>
