<?xml version="1.0" encoding="iso-8859-1"?>
<!-- Generator: Adobe Illustrator 19.0.0, SVG Export Plug-In . SVG Version: 6.00 Build 0)  -->
<svg version="1.1" id="Capa_1" xmlns="http://www.w3.org/2000/svg" xmlns:xlink="http://www.w3.org/1999/xlink" x="0px" y="0px"
	 viewBox="0 0 512 512" style="enable-background:new 0 0 512 512;" xml:space="preserve">
<polygon style="fill:#0C61C6;" points="380,58 220,58 190,154 410,154 "/>
<polygon style="fill:#0A4EAF;" points="300,154 410,154 380,58 300,58 "/>
<path style="fill:#0C61C6;" d="M512,454H0V189c0-24.853,20.147-45,45-45h407c33.137,0,60,26.863,60,60V454z"/>
<path style="fill:#0A4EAF;" d="M452,144H130H45c-24.853,0-45,20.147-45,45l0,0c0,35.898,29.101,65,65,65l0,0
	c35.898,0,65-29.102,65-65v265h382V204C512,170.863,485.137,144,452,144z"/>
<path style="fill:#032E68;" d="M452,144H300v310h212V204C512,170.863,485.137,144,452,144z"/>
<circle style="fill:#063E8B;" cx="65" cy="199" r="20"/>
<circle style="fill:#FFAB15;" cx="455" cy="199" r="20"/>
<circle style="fill:#CCEFFF;" cx="300" cy="299" r="95"/>
<path style="fill:#ACE3FC;" d="M300,204v190c52.467,0,95-42.533,95-95S352.467,204,300,204z"/>
<g>
</g>
<g>
</g>
<g>
</g>
<g>
</g>
<g>
</g>
<g>
</g>
<g>
</g>
<g>
</g>
<g>
</g>
<g>
</g>
<g>
</g>
<g>
</g>
<g>
</g>
<g>
</g>
<g>
</g>
</svg>
