<svg width="110" height="110" viewBox="0 0 110 110" fill="none" xmlns="http://www.w3.org/2000/svg">
<path d="M86.2366 36.788H92.8125C102.266 36.788 110 44.5087 110 53.948V57.3787C110 66.8146 102.266 74.5387 92.8125 74.5387H17.1875C7.73438 74.5387 0 66.818 0 57.3787V53.948C0 45.148 6.75125 37.9224 15.3244 36.9771C15.1559 35.7912 15.0391 34.588 15.0391 33.3574C15.0391 19.2602 26.4859 7.83398 40.6038 7.83398C51.4456 7.83398 60.6891 14.5852 64.4084 24.0934C64.4084 24.0934 70.1388 21.4637 77.3025 23.9971C86.2091 27.1493 86.2366 36.788 86.2366 36.788Z" fill="#25B6D2"/>
<path d="M90.2309 98.0218V50.3643C90.2309 49.2248 89.2993 48.2915 88.1581 48.2915H21.8693C20.7298 48.2915 19.7965 49.2231 19.7965 50.3643V98.0201C19.7965 98.0218 90.4045 98.0218 90.2309 98.0218Z" fill="black"/>
<path d="M87.1183 51.0557H22.9058V98.0222H87.1183V51.0557Z" fill="#E04F5F"/>
<path d="M96.4373 98.0205H13.5592V99.4024H96.4373V98.0205Z" fill="#E2E2E2"/>
<path d="M92.2969 102.166H17.7031L13.5592 99.4038H96.4408L92.2969 102.166Z" fill="#C9C9C9"/>
<path d="M77.526 64.2124H32.4775V65.9312H77.526V64.2124Z" fill="white"/>
<path d="M77.526 72.9883H32.4775V74.707H77.526V72.9883Z" fill="white"/>
<path d="M77.526 81.7593H32.4775V83.478H77.526V81.7593Z" fill="white"/>
</svg>
