<svg width="80" height="80" viewBox="0 0 80 80" fill="none" xmlns="http://www.w3.org/2000/svg">
<path d="M73.7519 25.7627H4.8922C2.19119 25.7627 0 23.5715 0 20.8705V4.8922C0 2.19119 2.19119 0 4.8922 0H73.7505C76.4529 0 78.6441 2.19119 78.6441 4.8922V20.8692C78.6441 23.5715 76.4529 25.7627 73.7519 25.7627Z" fill="#556080"/>
<path d="M73.7519 51.5254H4.8922C2.19119 51.5254 0 49.3342 0 46.6332V30.6549C0 27.9539 2.19119 25.7627 4.8922 25.7627H73.7505C76.4529 25.7627 78.6441 27.9539 78.6441 30.6549V46.6318C78.6441 49.3342 76.4529 51.5254 73.7519 51.5254Z" fill="#38454F"/>
<path d="M73.7519 77.2881H4.8922C2.19119 77.2881 0 75.0969 0 72.3959V56.4176C0 53.7166 2.19119 51.5254 4.8922 51.5254H73.7505C76.4529 51.5254 78.6441 53.7166 78.6441 56.4176V72.3945C78.6441 75.0969 76.4529 77.2881 73.7519 77.2881Z" fill="#556080"/>
<path d="M12.8814 17.6273C15.5024 17.6273 17.6271 15.5025 17.6271 12.8815C17.6271 10.2605 15.5024 8.13574 12.8814 8.13574C10.2604 8.13574 8.13562 10.2605 8.13562 12.8815C8.13562 15.5025 10.2604 17.6273 12.8814 17.6273Z" fill="#8697CB"/>
<path d="M66.4406 12.2036C67.1895 12.2036 67.7966 11.5965 67.7966 10.8476C67.7966 10.0988 67.1895 9.4917 66.4406 9.4917C65.6918 9.4917 65.0847 10.0988 65.0847 10.8476C65.0847 11.5965 65.6918 12.2036 66.4406 12.2036Z" fill="#8697CB"/>
<path d="M61.0169 12.2036C61.7658 12.2036 62.3729 11.5965 62.3729 10.8476C62.3729 10.0988 61.7658 9.4917 61.0169 9.4917C60.2681 9.4917 59.661 10.0988 59.661 10.8476C59.661 11.5965 60.2681 12.2036 61.0169 12.2036Z" fill="#8697CB"/>
<path d="M69.1526 16.2709C69.9014 16.2709 70.5085 15.6639 70.5085 14.915C70.5085 14.1662 69.9014 13.5591 69.1526 13.5591C68.4037 13.5591 67.7966 14.1662 67.7966 14.915C67.7966 15.6639 68.4037 16.2709 69.1526 16.2709Z" fill="#8697CB"/>
<path d="M63.7289 16.2709C64.4777 16.2709 65.0848 15.6639 65.0848 14.915C65.0848 14.1662 64.4777 13.5591 63.7289 13.5591C62.98 13.5591 62.3729 14.1662 62.3729 14.915C62.3729 15.6639 62.98 16.2709 63.7289 16.2709Z" fill="#8697CB"/>
<path d="M55.5932 12.2036C56.3421 12.2036 56.9492 11.5965 56.9492 10.8476C56.9492 10.0988 56.3421 9.4917 55.5932 9.4917C54.8444 9.4917 54.2373 10.0988 54.2373 10.8476C54.2373 11.5965 54.8444 12.2036 55.5932 12.2036Z" fill="#8697CB"/>
<path d="M58.305 16.2709C59.0539 16.2709 59.661 15.6639 59.661 14.915C59.661 14.1662 59.0539 13.5591 58.305 13.5591C57.5562 13.5591 56.9491 14.1662 56.9491 14.915C56.9491 15.6639 57.5562 16.2709 58.305 16.2709Z" fill="#8697CB"/>
<path d="M50.1695 12.2036C50.9184 12.2036 51.5255 11.5965 51.5255 10.8476C51.5255 10.0988 50.9184 9.4917 50.1695 9.4917C49.4207 9.4917 48.8136 10.0988 48.8136 10.8476C48.8136 11.5965 49.4207 12.2036 50.1695 12.2036Z" fill="#8697CB"/>
<path d="M52.8813 16.2709C53.6302 16.2709 54.2373 15.6639 54.2373 14.915C54.2373 14.1662 53.6302 13.5591 52.8813 13.5591C52.1325 13.5591 51.5254 14.1662 51.5254 14.915C51.5254 15.6639 52.1325 16.2709 52.8813 16.2709Z" fill="#8697CB"/>
<path d="M44.7457 12.2036C45.4946 12.2036 46.1016 11.5965 46.1016 10.8476C46.1016 10.0988 45.4946 9.4917 44.7457 9.4917C43.9968 9.4917 43.3898 10.0988 43.3898 10.8476C43.3898 11.5965 43.9968 12.2036 44.7457 12.2036Z" fill="#8697CB"/>
<path d="M47.4576 16.2709C48.2065 16.2709 48.8135 15.6639 48.8135 14.915C48.8135 14.1662 48.2065 13.5591 47.4576 13.5591C46.7088 13.5591 46.1017 14.1662 46.1017 14.915C46.1017 15.6639 46.7088 16.2709 47.4576 16.2709Z" fill="#8697CB"/>
<path d="M12.8814 43.39C15.5024 43.39 17.6271 41.2652 17.6271 38.6442C17.6271 36.0232 15.5024 33.8984 12.8814 33.8984C10.2604 33.8984 8.13562 36.0232 8.13562 38.6442C8.13562 41.2652 10.2604 43.39 12.8814 43.39Z" fill="#8697CB"/>
<path d="M66.4406 37.9663C67.1895 37.9663 67.7966 37.3592 67.7966 36.6103C67.7966 35.8615 67.1895 35.2544 66.4406 35.2544C65.6918 35.2544 65.0847 35.8615 65.0847 36.6103C65.0847 37.3592 65.6918 37.9663 66.4406 37.9663Z" fill="#8697CB"/>
<path d="M61.0169 37.9663C61.7658 37.9663 62.3729 37.3592 62.3729 36.6103C62.3729 35.8615 61.7658 35.2544 61.0169 35.2544C60.2681 35.2544 59.661 35.8615 59.661 36.6103C59.661 37.3592 60.2681 37.9663 61.0169 37.9663Z" fill="#8697CB"/>
<path d="M69.1526 42.0341C69.9014 42.0341 70.5085 41.4271 70.5085 40.6782C70.5085 39.9293 69.9014 39.3223 69.1526 39.3223C68.4037 39.3223 67.7966 39.9293 67.7966 40.6782C67.7966 41.4271 68.4037 42.0341 69.1526 42.0341Z" fill="#8697CB"/>
<path d="M63.7289 42.0341C64.4777 42.0341 65.0848 41.4271 65.0848 40.6782C65.0848 39.9293 64.4777 39.3223 63.7289 39.3223C62.98 39.3223 62.3729 39.9293 62.3729 40.6782C62.3729 41.4271 62.98 42.0341 63.7289 42.0341Z" fill="#8697CB"/>
<path d="M55.5932 37.9663C56.3421 37.9663 56.9492 37.3592 56.9492 36.6103C56.9492 35.8615 56.3421 35.2544 55.5932 35.2544C54.8444 35.2544 54.2373 35.8615 54.2373 36.6103C54.2373 37.3592 54.8444 37.9663 55.5932 37.9663Z" fill="#8697CB"/>
<path d="M58.305 42.0341C59.0539 42.0341 59.661 41.4271 59.661 40.6782C59.661 39.9293 59.0539 39.3223 58.305 39.3223C57.5562 39.3223 56.9491 39.9293 56.9491 40.6782C56.9491 41.4271 57.5562 42.0341 58.305 42.0341Z" fill="#8697CB"/>
<path d="M50.1695 37.9663C50.9184 37.9663 51.5255 37.3592 51.5255 36.6103C51.5255 35.8615 50.9184 35.2544 50.1695 35.2544C49.4207 35.2544 48.8136 35.8615 48.8136 36.6103C48.8136 37.3592 49.4207 37.9663 50.1695 37.9663Z" fill="#8697CB"/>
<path d="M52.8813 42.0341C53.6302 42.0341 54.2373 41.4271 54.2373 40.6782C54.2373 39.9293 53.6302 39.3223 52.8813 39.3223C52.1325 39.3223 51.5254 39.9293 51.5254 40.6782C51.5254 41.4271 52.1325 42.0341 52.8813 42.0341Z" fill="#8697CB"/>
<path d="M44.7457 37.9663C45.4946 37.9663 46.1016 37.3592 46.1016 36.6103C46.1016 35.8615 45.4946 35.2544 44.7457 35.2544C43.9968 35.2544 43.3898 35.8615 43.3898 36.6103C43.3898 37.3592 43.9968 37.9663 44.7457 37.9663Z" fill="#8697CB"/>
<path d="M47.4576 42.0341C48.2065 42.0341 48.8135 41.4271 48.8135 40.6782C48.8135 39.9293 48.2065 39.3223 47.4576 39.3223C46.7088 39.3223 46.1017 39.9293 46.1017 40.6782C46.1017 41.4271 46.7088 42.0341 47.4576 42.0341Z" fill="#8697CB"/>
<path d="M12.8814 69.1527C15.5024 69.1527 17.6271 67.0279 17.6271 64.4069C17.6271 61.7859 15.5024 59.6611 12.8814 59.6611C10.2604 59.6611 8.13562 61.7859 8.13562 64.4069C8.13562 67.0279 10.2604 69.1527 12.8814 69.1527Z" fill="#8697CB"/>
<path d="M66.4406 63.729C67.1895 63.729 67.7966 63.1219 67.7966 62.373C67.7966 61.6242 67.1895 61.0171 66.4406 61.0171C65.6918 61.0171 65.0847 61.6242 65.0847 62.373C65.0847 63.1219 65.6918 63.729 66.4406 63.729Z" fill="#8697CB"/>
<path d="M61.0169 63.729C61.7658 63.729 62.3729 63.1219 62.3729 62.373C62.3729 61.6242 61.7658 61.0171 61.0169 61.0171C60.2681 61.0171 59.661 61.6242 59.661 62.373C59.661 63.1219 60.2681 63.729 61.0169 63.729Z" fill="#8697CB"/>
<path d="M69.1526 67.7968C69.9014 67.7968 70.5085 67.1898 70.5085 66.4409C70.5085 65.692 69.9014 65.085 69.1526 65.085C68.4037 65.085 67.7966 65.692 67.7966 66.4409C67.7966 67.1898 68.4037 67.7968 69.1526 67.7968Z" fill="#8697CB"/>
<path d="M63.7289 67.7968C64.4777 67.7968 65.0848 67.1898 65.0848 66.4409C65.0848 65.692 64.4777 65.085 63.7289 65.085C62.98 65.085 62.3729 65.692 62.3729 66.4409C62.3729 67.1898 62.98 67.7968 63.7289 67.7968Z" fill="#8697CB"/>
<path d="M55.5932 63.729C56.3421 63.729 56.9492 63.1219 56.9492 62.373C56.9492 61.6242 56.3421 61.0171 55.5932 61.0171C54.8444 61.0171 54.2373 61.6242 54.2373 62.373C54.2373 63.1219 54.8444 63.729 55.5932 63.729Z" fill="#8697CB"/>
<path d="M58.305 67.7968C59.0539 67.7968 59.661 67.1898 59.661 66.4409C59.661 65.692 59.0539 65.085 58.305 65.085C57.5562 65.085 56.9491 65.692 56.9491 66.4409C56.9491 67.1898 57.5562 67.7968 58.305 67.7968Z" fill="#8697CB"/>
<path d="M50.1695 63.729C50.9184 63.729 51.5255 63.1219 51.5255 62.373C51.5255 61.6242 50.9184 61.0171 50.1695 61.0171C49.4207 61.0171 48.8136 61.6242 48.8136 62.373C48.8136 63.1219 49.4207 63.729 50.1695 63.729Z" fill="#8697CB"/>
<path d="M52.8813 67.7968C53.6302 67.7968 54.2373 67.1898 54.2373 66.4409C54.2373 65.692 53.6302 65.085 52.8813 65.085C52.1325 65.085 51.5254 65.692 51.5254 66.4409C51.5254 67.1898 52.1325 67.7968 52.8813 67.7968Z" fill="#8697CB"/>
<path d="M44.7457 63.729C45.4946 63.729 46.1016 63.1219 46.1016 62.373C46.1016 61.6242 45.4946 61.0171 44.7457 61.0171C43.9968 61.0171 43.3898 61.6242 43.3898 62.373C43.3898 63.1219 43.9968 63.729 44.7457 63.729Z" fill="#8697CB"/>
<path d="M47.4576 67.7968C48.2065 67.7968 48.8135 67.1898 48.8135 66.4409C48.8135 65.692 48.2065 65.085 47.4576 65.085C46.7088 65.085 46.1017 65.692 46.1017 66.4409C46.1017 67.1898 46.7088 67.7968 47.4576 67.7968Z" fill="#8697CB"/>
<path d="M80 58.3052H52.8813V80.0001H80V58.3052Z" fill="#B1D3EF"/>
<path d="M70.5085 67.7963C70.5085 65.5495 68.6875 63.7285 66.4407 63.7285C64.1939 63.7285 62.3729 65.5495 62.3729 67.7963C62.3729 69.5821 63.5309 71.0831 65.1322 71.6295C65.1173 71.7082 65.0848 71.7814 65.0848 71.8641V74.576C65.0848 75.3244 65.6922 75.9319 66.4407 75.9319C67.1892 75.9319 67.7967 75.3244 67.7967 74.576V71.8641C67.7967 71.7814 67.7641 71.7082 67.7492 71.6295C69.3506 71.0831 70.5085 69.5821 70.5085 67.7963Z" fill="#556080"/>
<path d="M59.661 55.5931C59.661 51.8548 62.7023 48.8134 66.4406 48.8134C70.1789 48.8134 73.2203 51.8548 73.2203 55.5931V58.305H75.9321V55.5931C75.9321 50.3592 71.6745 46.1016 66.4406 46.1016C61.2067 46.1016 56.9491 50.3592 56.9491 55.5931V58.305H59.661V55.5931Z" fill="#BDC3C7"/>
</svg>
