<svg width="110" height="110" viewBox="0 0 110 110" fill="none" xmlns="http://www.w3.org/2000/svg">
<path d="M105.339 14.7468H4.65442V76.1921H105.339V14.7468Z" fill="#F33052"/>
<path d="M103.125 16.6787V74.5422H6.875V16.6787H103.125ZM104.844 9.80371H5.15625C2.32031 9.80371 0 12.124 0 14.96V76.2609C0 79.0968 2.32031 81.4172 5.15625 81.4172H104.844C107.68 81.4172 110 79.0968 110 76.2609V14.96C110 12.124 107.68 9.80371 104.844 9.80371Z" fill="black"/>
<path d="M63.5938 81.4207H46.4062V96.745H63.5938V81.4207Z" fill="#494949"/>
<path d="M79.2584 93.3213H30.7209V100.196H79.2584V93.3213Z" fill="black"/>
<path d="M46.4062 81.4207H60.7475L46.4062 87.811V81.4207Z" fill="black"/>
<g opacity="0.35">
<path d="M6.875 16.6787H36.0938L6.875 34.5125V16.6787Z" fill="white"/>
</g>
<path d="M64.0234 25.4065H36.5234V28.844H64.0234V25.4065Z" fill="white"/>
<path d="M73.4766 33.5706H45.9766V37.0081H73.4766V33.5706Z" fill="white"/>
<path d="M64.0234 43.8831H36.5234V47.3206H64.0234V43.8831Z" fill="white"/>
<path d="M73.4766 52.0369H45.9766V55.4744H73.4766V52.0369Z" fill="white"/>
<path d="M64.0234 62.3494H36.5234V65.7869H64.0234V62.3494Z" fill="white"/>
</svg>
