<svg width="24" height="24" viewBox="0 0 24 24" fill="none" xmlns="http://www.w3.org/2000/svg">
<path fill-rule="evenodd" clip-rule="evenodd" d="M10.2042 1.89254C11.4134 0.680763 13.0532 0 14.7632 0H18.0789C18.5876 0 19 0.41328 19 0.923077V5.35385C19 5.86364 18.5876 6.27692 18.0789 6.27692H14.7632C14.7143 6.27692 14.6675 6.29637 14.6329 6.33099C14.5984 6.36561 14.5789 6.41258 14.5789 6.46154V8.86154H18.0789C18.3626 8.86154 18.6304 8.99249 18.805 9.21654C18.9795 9.44059 19.0413 9.73268 18.9725 10.0085L17.8672 14.4393C17.7647 14.8502 17.3964 15.1385 16.9737 15.1385H14.5789V23.0769C14.5789 23.5867 14.1666 24 13.6579 24H9.23684C8.72816 24 8.31579 23.5867 8.31579 23.0769V15.1385H5.92105C5.41237 15.1385 5 14.7252 5 14.2154V9.78462C5 9.27482 5.41237 8.86154 5.92105 8.86154H8.31579V6.46154C8.31579 4.74783 8.99506 3.10432 10.2042 1.89254ZM14.7632 1.84615C13.5417 1.84615 12.3704 2.33242 11.5067 3.19797C10.6431 4.06352 10.1579 5.23746 10.1579 6.46154V9.78462C10.1579 10.2944 9.74551 10.7077 9.23684 10.7077H6.84211V13.2923H9.23684C9.74551 13.2923 10.1579 13.7056 10.1579 14.2154V22.1538H12.7368V14.2154C12.7368 13.7056 13.1492 13.2923 13.6579 13.2923H16.2545L16.8993 10.7077H13.6579C13.1492 10.7077 12.7368 10.2944 12.7368 9.78462V6.46154C12.7368 5.92294 12.9503 5.40641 13.3304 5.02556C13.7103 4.64473 14.2258 4.43077 14.7632 4.43077H17.1579V1.84615H14.7632Z" fill="white"/>
</svg>
