<svg width="25" height="24" viewBox="0 0 25 24" fill="none" xmlns="http://www.w3.org/2000/svg">
<path fill-rule="evenodd" clip-rule="evenodd" d="M7.94495 0.147275C5.99149 0.235415 4.29834 0.713011 2.93116 2.07442C1.5592 3.44299 1.08754 5.14285 0.999177 7.07599C0.944251 8.28256 0.62307 17.398 1.55443 19.7885C2.18249 21.4012 3.4195 22.6412 5.04698 23.2713C5.80639 23.5667 6.67329 23.7666 7.94495 23.825C18.5779 24.3062 22.5195 24.0442 24.1816 19.7885C24.4765 19.0309 24.6795 18.1648 24.7356 16.8963C25.2216 6.23605 24.6568 3.92538 22.8037 2.07442C21.3338 0.608191 19.6048 -0.389905 7.94495 0.147275ZM8.04284 21.6811C6.87865 21.6286 6.24701 21.4347 5.82551 21.2715C4.76519 20.8594 3.96877 20.0662 3.55921 19.0121C2.84995 17.1957 3.08519 8.56863 3.14847 7.17267C3.21056 5.80529 3.48757 4.55561 4.45236 3.59083C5.64641 2.39973 7.1891 1.81599 17.6931 2.29005C19.0639 2.35198 20.3165 2.62843 21.2836 3.59083C22.4777 4.78191 23.0699 6.33648 22.5875 16.8002C22.535 17.9615 22.3404 18.5917 22.1768 19.0121C21.0962 21.7814 18.6101 22.1658 8.04284 21.6811ZM17.809 5.62755C17.809 6.41606 18.4502 7.05724 19.2418 7.05724C20.0335 7.05724 20.6759 6.41606 20.6759 5.62755C20.6759 4.83905 20.0335 4.19845 19.2418 4.19845C18.4502 4.19845 17.809 4.83905 17.809 5.62755ZM6.73657 11.9856C6.73657 15.3635 9.48169 18.1022 12.868 18.1022C16.2543 18.1022 18.9994 15.3635 18.9994 11.9856C18.9994 8.60763 16.2543 5.87071 12.868 5.87071C9.48169 5.87071 6.73657 8.60763 6.73657 11.9856ZM8.88824 11.9856C8.88824 9.79396 10.6698 8.01583 12.868 8.01583C15.0662 8.01583 16.8478 9.79396 16.8478 11.9856C16.8478 14.1784 15.0662 15.957 12.868 15.957C10.6698 15.957 8.88824 14.1784 8.88824 11.9856Z" fill="#fff"/>
</svg>
