<svg width="25" height="24" viewBox="0 0 25 24" fill="none" xmlns="http://www.w3.org/2000/svg">
<path d="M19.6594 23.999C19.3678 23.999 19.1303 23.7624 19.1303 23.4707V15.441C19.1303 12.5377 17.6403 12.5377 17.0787 12.5377C15.5138 12.5377 14.7213 13.5144 14.7213 15.441V23.4715C14.7213 23.7632 14.4846 23.9999 14.193 23.9999H9.65234C9.36068 23.9999 9.12402 23.7632 9.12402 23.4715V8.17451C9.12402 7.88286 9.36068 7.6462 9.65234 7.6462H14.1938C14.4855 7.6462 14.7221 7.88286 14.7221 8.17451V8.7445L14.9955 8.51867C16.0704 7.62953 17.3529 7.17871 18.807 7.17871C20.6044 7.17871 22.1177 7.75286 23.1826 8.84033C24.3076 9.98863 24.9017 11.6986 24.9017 13.7843V23.4715C24.9017 23.7632 24.6642 23.9999 24.3726 23.9999H19.6594V23.999ZM17.0795 11.4794C18.2412 11.4794 20.1894 11.9944 20.1894 15.441V22.9424H23.8434V13.7843C23.8434 10.2586 22.0077 8.23701 18.807 8.23701C15.9487 8.23701 14.7105 10.3953 14.6588 10.4869C14.5655 10.6561 14.3888 10.7611 14.1963 10.7611C14.153 10.7611 14.1088 10.7544 14.0638 10.7436C13.8288 10.6844 13.6647 10.4753 13.6647 10.2353V8.7045H10.1815V22.9432H13.6647V15.441C13.6647 12.9602 14.9413 11.4794 17.0795 11.4794Z" fill="#fff"/>
<path d="M1.88364 23.9983C1.59198 23.9983 1.35449 23.7617 1.35449 23.47V8.17382C1.35449 7.88217 1.59198 7.64551 1.88364 7.64551H6.62094C6.9126 7.64551 7.14926 7.88217 7.14926 8.17382V23.47C7.14926 23.7617 6.9126 23.9983 6.62094 23.9983H1.88364ZM2.41278 22.9417H6.0918V8.70298H2.41278V22.9417Z" fill="#fff"/>
<path d="M4.23206 6.69896C2.39547 6.69896 0.901367 5.19651 0.901367 3.3499C0.901367 1.50245 2.39547 0 4.23206 0C6.06616 0 7.55943 1.50329 7.55943 3.35073C7.55943 5.19651 6.06616 6.69896 4.23206 6.69896ZM4.23206 1.05497C2.97878 1.05497 1.95966 2.0841 1.95966 3.3499C1.95966 4.61486 2.97878 5.64233 4.23206 5.64233C5.48451 5.64233 6.50281 4.61486 6.50281 3.3499C6.50197 2.08494 5.48451 1.05497 4.23206 1.05497Z" fill="#fff"/>
</svg>
