<svg width="25" height="24" viewBox="0 0 25 24" fill="none" xmlns="http://www.w3.org/2000/svg">
<g clip-path="url(#clip0_1002_31)">
<path d="M23.1705 3.74219C22.3665 4.26172 21.5625 4.70703 20.5392 4.92969C19.6622 3.74219 18.2004 3 16.5924 3C13.7419 3 11.4761 5.30078 11.4761 8.19531C11.4761 8.49219 11.4761 8.78906 11.5492 9.08594C8.33326 8.56641 5.48276 6.85938 3.50934 4.33594C3.14389 5.00391 2.92462 5.82031 2.92462 6.71094C2.92462 8.34375 3.72861 9.75391 4.89804 10.5703C4.16715 10.5703 3.43625 10.3477 2.85153 9.97656V10.0508C2.85153 12.3516 4.38642 14.207 6.43293 14.6523C6.06748 14.7266 5.62894 14.8008 5.26349 14.8008C4.97113 14.8008 4.67878 14.8008 4.38642 14.7266C4.97113 16.582 6.57911 17.918 8.55253 17.9922C7.01765 19.2539 5.04422 19.9961 2.99771 19.9961C2.63226 19.9961 2.26682 19.9961 1.90137 19.9219C3.87479 21.2578 6.21366 22 8.7718 22C16.9578 22 21.4894 14.9492 21.5625 8.78906L23.9014 7.45312L21.7087 6.71094L23.1705 3.74219Z" stroke="#fff" stroke-width="2" stroke-miterlimit="10" stroke-linecap="round" stroke-linejoin="round"/>
</g>
<defs>
<clipPath id="clip0_1002_31">
<rect width="24" height="24" fill="white" transform="translate(0.901367)"/>
</clipPath>
</defs>
</svg>
