<svg width="178" height="81" viewBox="0 0 178 81" fill="none" xmlns="http://www.w3.org/2000/svg">
<path d="M127.399 45.5488C127.031 45.6441 126.637 45.4819 126.448 45.1402C126.235 44.7569 126.35 44.275 126.712 44.0292L130.845 41.2254C130.896 41.192 130.949 41.1626 131.005 41.1396L147.396 34.5562L129.548 40.1305C129.108 40.2616 128.642 40.0293 128.495 39.5949C128.395 39.2999 128.467 38.9879 128.657 38.7678L124.956 39.2177C124.492 39.2731 124.071 38.9438 124.015 38.479C123.959 38.0161 124.294 37.5923 124.753 37.5382L128.794 37.0484L147.746 31.7181L165.914 25.115C166.36 24.9415 166.838 25.1823 166.998 25.6205C167.157 26.0595 166.931 26.5446 166.492 26.7039L165.152 27.191C165.238 27.26 165.312 27.3478 165.366 27.4507C165.554 27.7996 165.473 28.2316 165.174 28.4902L163.655 29.7986C163.584 29.8598 163.504 29.9078 163.418 29.9438L155.962 32.9386L127.529 45.5031C127.486 45.5226 127.443 45.5374 127.399 45.5488Z" fill="#EBEBEB"/>
<path d="M155.545 39.6908C155.264 39.7635 154.954 39.6904 154.735 39.4725C154.412 39.1504 154.403 38.629 154.714 38.2957L164.64 27.6698C156.584 26.2508 151.268 25.3366 150.442 25.2282C150.278 25.2325 150.11 25.1905 149.97 25.1084C149.856 25.0415 149.762 24.9516 149.692 24.846C149.484 24.6541 148.611 23.8801 147.828 23.1985C147.539 22.9466 147.456 22.5314 147.625 22.1872C147.796 21.8436 148.176 21.658 148.551 21.7321L167.224 25.4929C167.524 25.5532 167.768 25.7722 167.861 26.0637C167.912 26.2187 167.915 26.3817 167.876 26.5334C168.13 26.6209 168.332 26.8283 168.411 27.0913C168.502 27.3985 168.413 27.7305 168.18 27.9498L155.911 39.4885C155.804 39.5893 155.677 39.6564 155.545 39.6908Z" fill="#EBEBEB"/>
<path d="M153.769 43.3213C153.474 43.3978 153.148 43.3117 152.93 43.0716C152.616 42.7249 152.643 42.1905 152.988 41.8758L166.405 29.703L147.121 19.9215C146.705 19.7096 146.539 19.2007 146.75 18.7842C146.961 18.3678 147.47 18.2007 147.887 18.4125L168.264 28.7499C168.512 28.8751 168.683 29.1157 168.719 29.3912C168.756 29.6665 168.656 29.9433 168.45 30.1298L154.124 43.1285C154.02 43.224 153.897 43.2881 153.769 43.3213Z" fill="#EBEBEB"/>
<path d="M21.2974 60.0844C21.2034 60.0716 21.1444 60.0828 21.056 60.0994C20.8202 60.1439 20.636 60.3008 20.5571 60.5294C20.3607 61.2686 18.3484 67.7542 17.316 69.0786C17.0518 66.8693 17.153 61.9044 16.3631 57.7183C15.5732 53.5322 13.9162 50.0897 10.2017 50.7906C5.42602 51.6917 5.75376 62.651 5.74488 64.5455C5.1736 61.3561 4.42432 57.2234 3.76069 52.2502C3.68282 51.8375 3.44308 51.6995 3.1188 51.7607C2.58817 51.8609 1.96965 52.466 2.01082 53.0078C2.54876 59.2564 3.30639 64.2424 3.94052 67.6031C4.52459 70.6985 5.00574 72.4394 5.0113 72.4689C5.11699 73.029 5.45073 73.1798 5.80449 73.113C6.33512 73.0129 6.90024 72.4483 6.86297 72.089C6.39292 68.7889 6.55587 66.2548 7.0008 62.1409C7.6682 55.9702 7.91847 52.4426 10.4242 51.9698C12.3699 51.6027 13.3717 54.1613 14.0003 57.4925C14.64 60.8827 14.9176 65.1044 15.4349 67.846C15.7853 69.7033 16.2548 70.8969 17.0213 70.7523C18.9375 70.3907 21.8164 61.055 21.7218 60.5539C21.6829 60.3475 21.526 60.1634 21.2974 60.0844ZM37.7341 56.8914C37.6401 56.8786 37.5461 56.8658 37.4577 56.8825C36.8681 56.9937 37.2274 56.9565 35.4581 61.656C34.9308 63.0683 34.1627 64.9839 33.8078 65.692C33.6265 65.0546 33.4413 64.2347 33.2688 63.3208C32.6569 60.078 32.2264 55.8546 32.2153 55.7957C32.1318 55.3535 31.8515 55.1621 31.4977 55.2289C30.7312 55.3735 29.5571 56.7552 29.1066 59.2215C28.1037 57.3042 26.5562 56.2224 24.9938 56.5172C24.2273 56.6618 23.2384 57.2453 22.883 59.0831C22.6266 60.4747 22.8329 62.0539 23.0443 63.1741C23.6618 66.4463 25.0268 69.1501 26.3534 68.8998C27.4146 68.6996 28.3062 66.7912 29.5855 62.2451C29.9159 61.0837 30.1745 60.0275 30.3614 59.0763C30.8559 61.2116 31.3638 63.7413 31.767 65.0696C32.6921 68.1922 33.2166 67.5743 33.4819 67.5242C34.3073 67.3684 35.1183 65.8416 36.5038 62.3441C38.104 58.0428 38.1363 57.2429 38.1585 57.3608C38.1196 57.1545 37.9627 56.9704 37.7341 56.8914ZM26.701 66.6972C26.2883 66.775 25.811 65.2165 25.4939 63.5362C24.7485 59.5859 25.2536 58.0557 25.9316 57.9278C26.875 57.7498 28.3056 59.8306 28.6149 61.146C28.2278 62.654 27.2316 66.597 26.701 66.6972ZM50.1696 54.4228C49.9265 54.5908 49.4015 54.7204 48.8414 54.8261C47.9275 54.9985 46.8328 55.0219 46.1253 55.1554C45.8305 55.211 45.6281 55.4324 45.6247 55.7383C45.6319 55.6148 45.3684 63.6022 44.425 63.7802C44.1302 63.8358 40.6432 55.5487 40.3495 54.963C39.9117 54.0992 39.3088 53.8161 38.8666 53.8995C38.4539 53.9774 38.1908 54.3629 38.2909 54.8935C39.0786 58.7442 43.292 65.7036 44.6186 65.4533C46.5348 65.0918 46.7467 58.6101 46.8306 56.3045C47.3134 56.2745 48.3269 56.1443 48.9754 56.022C50.3315 55.7661 51.1936 55.4813 51.0657 54.8033C50.9989 54.4495 50.6652 54.2988 50.3704 54.3544C50.3114 54.3655 50.223 54.3822 50.1696 54.4228ZM60.2493 53.4673C60.2621 53.3733 60.2749 53.2793 60.2582 53.1908C60.2082 52.9255 59.9406 52.6402 59.5869 52.7069C59.351 52.7514 59.1669 52.9083 59.1119 53.1018C59.0568 53.2954 56.4159 61.3039 55.7379 61.4319C55.6789 61.443 55.6678 61.384 55.6066 61.0598C55.3062 59.4679 54.6504 53.2415 54.3778 51.797C54.2944 51.3548 54.073 51.1523 53.6013 51.2413C52.4221 51.4638 52.0105 52.5184 52.6447 55.8791C53.2399 59.0335 54.4909 63.56 55.6111 63.3486C57.3504 63.0204 59.9262 54.5052 60.2493 53.4673ZM52.8354 50.2563C53.5318 50.0638 53.8405 49.2729 53.7181 48.6243C53.6124 48.0642 53.2397 47.7071 52.5322 47.8406C51.7952 47.9797 51.5088 48.8885 51.62 49.4781C51.7202 50.0088 52.0689 50.4009 52.7175 50.2785L52.8354 50.2563ZM76.7479 49.5299C76.6538 49.5171 76.5598 49.5043 76.4714 49.521C76.265 49.5599 76.0515 49.7223 76.002 49.9454C75.1521 52.8839 73.7921 54.5754 72.3415 55.9482L72.0578 54.4447C71.4404 51.1724 70.7278 48.5287 70.7223 48.4992L70.6945 48.3518C70.611 47.9096 70.3657 47.7422 70.0414 47.8034C69.2455 47.9536 68.0107 49.4994 67.5897 51.9601C66.5923 50.0723 65.0099 48.9665 63.4769 49.2558C62.7104 49.4004 61.7215 49.9839 61.3661 51.8217C61.1097 53.2133 61.2866 54.798 61.4979 55.9183C62.1098 59.161 63.5099 61.8887 64.8365 61.6384C66.3989 61.3436 67.959 55.8592 68.9802 51.2398C69.171 52.0891 69.4007 53.1448 69.6121 54.2651C69.8235 55.3853 69.9687 56.6401 70.1967 57.8488C68.4441 59.4007 66.0702 62.352 66.6153 65.2411C67.0547 67.57 69.1272 68.5222 70.8665 68.194C73.785 67.6433 72.722 59.9063 72.5496 57.3743C74.3022 55.8224 76.106 53.8945 77.1634 50.2757C77.1762 50.1817 77.1889 50.0877 77.1723 49.9993C77.1333 49.7929 76.9765 49.6088 76.7479 49.5299ZM64.9104 60.2506C64.7686 60.3079 64.5483 59.4641 64.3147 58.226C63.7862 55.4254 63.3145 50.6602 64.3758 50.46C64.9064 50.3599 66.1496 51.2854 67.098 53.8846C66.772 55.7168 65.6602 60.0176 64.9104 60.2506ZM68.3229 66.2011C68.0498 65.8863 67.8596 65.5253 67.7761 65.0831C67.3812 62.99 69.061 60.5665 70.3809 59.31C70.5338 60.9297 71.4122 66.7172 69.8498 67.012C69.437 67.0899 68.8691 66.8307 68.3229 66.2011ZM93.1722 46.4307C93.0782 46.4179 92.9842 46.4051 92.8958 46.4218C92.3062 46.5331 92.6655 46.4958 90.8962 51.1954C90.3689 52.6076 89.6008 54.5233 89.246 55.2313C89.0646 54.5939 88.8794 53.774 88.7069 52.8602C88.0951 49.6174 87.6645 45.394 87.6534 45.335C87.5699 44.8928 87.2896 44.7015 86.9358 44.7682C86.1694 44.9129 84.9952 46.2945 84.5447 48.7608C83.5418 46.8436 81.9944 45.7617 80.4319 46.0565C79.6655 46.2012 78.6765 46.7846 78.3211 48.6224C78.0647 50.0141 78.2711 51.5932 78.4824 52.7134C79.0999 55.9857 80.4649 58.6895 81.7915 58.4392C82.8528 58.2389 83.7444 56.3305 85.0236 51.7845C85.354 50.6231 85.6126 49.5668 85.7995 48.6157C86.294 50.751 86.8019 53.2807 87.2052 54.6089C88.1302 57.7316 88.6547 57.1136 88.92 57.0635C89.7455 56.9078 90.5564 55.381 91.9419 51.8834C93.5421 47.5821 93.5744 46.7823 93.5966 46.9002C93.5577 46.6938 93.4009 46.5097 93.1722 46.4307ZM82.1391 56.2365C81.7264 56.3144 81.2491 54.7559 80.9321 53.0755C80.1867 49.1252 80.6917 47.595 81.3697 47.4671C82.3131 47.2891 83.7437 49.3699 84.053 50.6854C83.6659 52.1933 82.6697 56.1364 82.1391 56.2365ZM101.65 44.831C101.556 44.8182 101.462 44.8054 101.344 44.8277C101.138 44.8666 100.954 45.0235 100.899 45.217C100.739 45.8272 98.4559 52.3334 97.6761 53.7017C97.6077 53.5009 97.5687 53.2946 97.5242 53.0587C97.0459 50.5235 96.8267 45.8022 96.2192 41.6122C98.2494 41.0459 99.2623 40.4274 99.3452 40.3813C99.5699 40.2778 99.7134 40.0675 99.6689 39.8317C99.6077 39.5074 99.2628 39.2977 98.9386 39.3589C98.8501 39.3756 99.0125 39.5892 96.0501 40.3924C95.7609 38.8595 95.604 37.0573 95.337 35.6423C95.1757 34.7874 94.8731 34.4781 94.195 34.606C92.3673 34.9509 93.541 37.935 93.714 40.9553C92.8001 41.1278 91.8345 41.1879 90.7143 41.3992C90.39 41.4604 90.1397 41.7519 90.2064 42.1056C90.3789 43.0195 92.9931 42.3125 93.8775 42.1457C94.0427 43.183 94.3937 47.1467 95.0279 50.5073C95.5619 53.3374 96.2833 55.7047 97.2856 55.5156C98.7302 55.243 100.008 51.3383 100.42 50.2837C102.109 45.9657 102.058 45.212 102.069 45.271C102.03 45.0646 101.879 44.91 101.65 44.831ZM111.993 42.8489C111.928 42.8305 111.84 42.8472 111.781 42.8584C110.543 43.092 110.785 51.6556 107.601 52.2564C106.098 52.54 105.584 49.9809 105.428 49.1554C105.284 48.389 105.211 47.5174 105.267 46.6825C106.917 45.8826 107.936 44.1639 107.653 42.6604C107.48 41.7465 106.816 41.1391 105.814 41.3283C103.573 41.751 102.369 45.886 103.059 49.5415C103.61 52.46 105.287 54.0669 107.468 53.6553C111.212 52.9488 111.695 46.9349 112.438 43.5892C112.451 43.4952 112.464 43.4012 112.447 43.3128C112.408 43.1064 112.222 42.9279 111.993 42.8489ZM106.344 43.9759C106.212 44.2451 105.971 44.7485 105.437 45.1545C105.624 44.2034 105.653 42.5798 106.213 42.4741C106.361 42.4463 106.471 42.5475 106.505 42.7244C106.566 43.0486 106.465 43.6477 106.344 43.9759Z" fill="white"/>
</svg>
