<svg width="54" height="54" viewBox="0 0 54 54" fill="none" xmlns="http://www.w3.org/2000/svg">
<path d="M37.125 3.375H12.375C9.2684 3.375 6.75 5.8934 6.75 9V45C6.75 48.1066 9.2684 50.625 12.375 50.625H37.125C40.2316 50.625 42.75 48.1066 42.75 45V9C42.75 5.8934 40.2316 3.375 37.125 3.375Z" fill="#EAEFF0"/>
<path d="M8.19562 5.27197C7.26954 6.29335 6.75453 7.62152 6.75 9.00022V45.0002C6.75179 46.4915 7.34499 47.9212 8.3995 48.9757C9.45401 50.0302 10.8837 50.6234 12.375 50.6252H37.125C37.9162 50.6229 38.6979 50.4525 39.4183 50.1255C40.1388 49.7986 40.7816 49.3224 41.3044 48.7285L8.19562 5.27197Z" fill="#CDD3D3"/>
<path d="M37.125 13.5C37.125 13.2017 37.0064 12.9155 36.7955 12.7045C36.5845 12.4936 36.2983 12.375 36 12.375H16.875C16.5767 12.375 16.2905 12.4936 16.0795 12.7045C15.8686 12.9155 15.75 13.2017 15.75 13.5C15.75 13.7983 15.8686 14.0845 16.0795 14.2955C16.2905 14.5064 16.5767 14.625 16.875 14.625H36C36.2983 14.625 36.5845 14.5064 36.7955 14.2955C37.0064 14.0845 37.125 13.7983 37.125 13.5Z" fill="#8FA5A5"/>
<path d="M35.0212 20.25C35.0212 19.9517 34.9027 19.6655 34.6917 19.4545C34.4808 19.2436 34.1946 19.125 33.8962 19.125H13.5C13.2017 19.125 12.9155 19.2436 12.7045 19.4545C12.4936 19.6655 12.375 19.9517 12.375 20.25C12.375 20.5483 12.4936 20.8345 12.7045 21.0455C12.9155 21.2564 13.2017 21.375 13.5 21.375H33.8962C34.1946 21.375 34.4808 21.2564 34.6917 21.0455C34.9027 20.8345 35.0212 20.5483 35.0212 20.25Z" fill="#8FA5A5"/>
<path d="M18.7504 19.125H13.5C13.2017 19.125 12.9155 19.2436 12.7045 19.4545C12.4936 19.6655 12.375 19.9517 12.375 20.25C12.375 20.5483 12.4936 20.8345 12.7045 21.0455C12.9155 21.2564 13.2017 21.375 13.5 21.375H20.4638L18.7504 19.125Z" fill="#7B8E8D"/>
<path d="M31.1288 27C31.1288 26.7017 31.0102 26.4155 30.7992 26.2045C30.5883 25.9936 30.3021 25.875 30.0038 25.875H13.5C13.2017 25.875 12.9155 25.9936 12.7045 26.2045C12.4936 26.4155 12.375 26.7017 12.375 27C12.375 27.2983 12.4936 27.5845 12.7045 27.7955C12.9155 28.0064 13.2017 28.125 13.5 28.125H30.0038C30.3021 28.125 30.5883 28.0064 30.7992 27.7955C31.0102 27.5845 31.1288 27.2983 31.1288 27Z" fill="#8FA5A5"/>
<path d="M23.8927 25.875H13.5C13.2016 25.875 12.9155 25.9936 12.7045 26.2045C12.4936 26.4155 12.375 26.7017 12.375 27C12.375 27.2983 12.4936 27.5845 12.7045 27.7955C12.9155 28.0064 13.2016 28.125 13.5 28.125H25.6072L23.8927 25.875Z" fill="#7B8E8D"/>
<path d="M27.2362 33.75C27.2362 33.4517 27.1177 33.1655 26.9067 32.9545C26.6958 32.7436 26.4096 32.625 26.1112 32.625H13.5C13.2017 32.625 12.9155 32.7436 12.7045 32.9545C12.4936 33.1655 12.375 33.4517 12.375 33.75C12.375 34.0483 12.4936 34.3345 12.7045 34.5455C12.9155 34.7564 13.2017 34.875 13.5 34.875H26.1112C26.4096 34.875 26.6958 34.7564 26.9067 34.5455C27.1177 34.3345 27.2362 34.0483 27.2362 33.75Z" fill="#7B8E8D"/>
<path d="M13.5 39.375C13.2017 39.375 12.9155 39.4936 12.7045 39.7045C12.4936 39.9155 12.375 40.2017 12.375 40.5C12.375 40.7983 12.4936 41.0845 12.7045 41.2955C12.9155 41.5064 13.2017 41.625 13.5 41.625H24.84C25.1383 41.625 25.4245 41.5064 25.6355 41.2955C25.8464 41.0845 25.965 40.7983 25.965 40.5C25.965 40.2017 25.8464 39.9155 25.6355 39.7045C25.4245 39.4936 25.1383 39.375 24.84 39.375H13.5Z" fill="#7B8E8D"/>
<path d="M30.4526 43.1076C30.1443 43.1063 29.8394 43.0425 29.5564 42.9199C29.2735 42.7973 29.0185 42.6185 28.8067 42.3943C28.597 42.1723 28.4353 41.9095 28.3315 41.6223C28.2278 41.3351 28.1843 41.0296 28.2037 40.7248L28.3826 37.7537C28.4357 36.8823 28.6903 36.035 29.1262 35.2787L42.2269 12.5807C42.4483 12.1964 42.7432 11.8594 43.095 11.5893C43.4467 11.3191 43.8482 11.1208 44.2766 11.0059C44.705 10.891 45.1519 10.8616 45.5915 10.9195C46.0313 10.9774 46.4553 11.1213 46.8394 11.3432L47.8136 11.9057C48.1979 12.1271 48.5348 12.4221 48.805 12.7738C49.0752 13.1255 49.2734 13.527 49.3884 13.9554C49.5034 14.3838 49.5327 14.8307 49.4748 15.2703C49.417 15.7101 49.273 16.1341 49.0511 16.5182L35.946 39.2106C35.5085 39.9662 34.902 40.6104 34.1741 41.0927L31.6901 42.7329C31.3234 42.9766 30.8929 43.1069 30.4526 43.1076Z" fill="#009AE0"/>
<path d="M30.4526 43.1077C30.8929 43.107 31.3233 42.9767 31.6901 42.7331L34.1741 41.0928C34.902 40.6105 35.5085 39.9663 35.946 39.2107L49.05 16.5194C49.2718 16.1354 49.4158 15.7113 49.4736 15.2716C49.5316 14.8319 49.5022 14.3851 49.3872 13.9567C49.2723 13.5283 49.074 13.1268 48.8038 12.7751C48.5337 12.4234 48.1968 12.1283 47.8125 11.9069L47.3748 11.6538L29.3816 42.8163C29.7085 43.0017 30.0768 43.1018 30.4526 43.1077Z" fill="#0081BD"/>
<path d="M47.8125 11.9081L46.8382 11.3456C46.4541 11.1238 46.0301 10.9798 45.5904 10.9219C45.1507 10.864 44.7039 10.8934 44.2755 11.0083C43.8471 11.1233 43.4455 11.3216 43.0939 11.5917C42.7422 11.8619 42.4471 12.1988 42.2257 12.5831L40.5956 15.4125L47.4153 19.35L49.0466 16.5251C49.2684 16.1411 49.4124 15.7171 49.4703 15.2773C49.5282 14.8376 49.4988 14.3908 49.3839 13.9624C49.2689 13.534 49.0707 13.1325 48.8004 12.7808C48.5303 12.429 48.1934 12.134 47.8091 11.9126L47.8125 11.9081Z" fill="#0081BD"/>
<path d="M47.4154 19.3502L49.0467 16.5253C49.2685 16.1412 49.4125 15.7172 49.4704 15.2776C49.5283 14.8378 49.4989 14.3909 49.384 13.9625C49.269 13.5341 49.0708 13.1326 48.8005 12.781C48.5304 12.4293 48.1935 12.1342 47.8092 11.9128L47.3716 11.6597L44.0551 17.405L47.4154 19.3502Z" fill="#00739B"/>
<path d="M41.1021 14.5298L39.9771 16.4783L46.7971 20.4156L47.9221 18.4669L41.1021 14.5298Z" fill="#EAEFF0"/>
<path d="M44.5616 16.5273L43.4366 18.4758L46.7969 20.4159L47.9219 18.4674L44.5616 16.5273Z" fill="#CDD3D3"/>
</svg>
