<svg width="54" height="56" viewBox="0 0 54 56" fill="none" xmlns="http://www.w3.org/2000/svg">
<path d="M43.807 17.2332C43.9591 21.109 42.7214 24.6915 40.552 27.5221C37.9514 30.9155 36.4608 35.0278 36.4608 39.3037V39.6992H19.4433V39.4644C19.4433 35.204 18.0986 31.0211 15.4675 27.6709C13.3483 24.9725 12.0846 21.5692 12.0846 17.8722C12.0846 9.02678 19.3187 1.86882 28.1931 2.00032C36.5664 2.12446 43.4789 8.86253 43.807 17.2332Z" fill="#FFD161"/>
<path d="M36.4605 40.2069H19.4435C19.1631 40.2069 18.936 39.9794 18.936 39.6991V39.4643C18.936 35.237 17.5626 31.1599 15.0688 27.9843C12.7844 25.0763 11.5773 21.5793 11.5773 17.8721C11.5773 13.4508 13.3115 9.30646 16.4602 6.20271C19.5491 3.15861 23.621 1.49072 27.95 1.49072C28.0334 1.49072 28.1172 1.49123 28.2007 1.4925C32.3812 1.55444 36.3486 3.21243 39.3714 6.16082C42.395 9.10996 44.1506 13.0352 44.3143 17.2136C44.464 21.0381 43.271 24.809 40.9547 27.8312C38.347 31.234 36.9683 35.2012 36.9683 39.3039V39.6994C36.968 39.9797 36.7409 40.2069 36.4605 40.2069ZM19.949 39.1914H35.9532C35.9783 34.9034 37.4278 30.7639 40.1492 27.2131C42.3215 24.3784 43.4403 20.8411 43.3 17.2529C42.9805 9.10539 36.3415 2.62905 28.1855 2.5077C24.0364 2.43789 20.1254 4.01541 17.1725 6.92571C14.2187 9.83729 12.5923 13.725 12.5923 17.8721C12.5923 21.3495 13.7246 24.6295 15.8667 27.3573C18.4464 30.6423 19.8909 34.8351 19.949 39.1914Z" fill="#10003B"/>
<path d="M15.7332 16.0336C15.6936 16.0336 15.6535 16.029 15.6134 16.0194C15.3409 15.9536 15.1737 15.6792 15.2394 15.4066C16.1509 11.6341 18.6749 8.48088 22.1639 6.75536C22.4159 6.63097 22.7196 6.73429 22.844 6.98536C22.9681 7.23694 22.865 7.54132 22.6138 7.66572C19.395 9.2577 17.0668 12.1662 16.226 15.6452C16.1699 15.8775 15.9621 16.0336 15.7332 16.0336Z" fill="#10003B"/>
<path d="M15.7314 21.96C15.5025 21.96 15.2947 21.8042 15.2386 21.5714C15.0444 20.7674 14.9267 19.9388 14.8881 19.1089C14.8752 18.8286 15.0916 18.5912 15.3715 18.5778C15.6449 18.5638 15.889 18.7816 15.9022 19.0614C15.9374 19.8276 16.0463 20.5914 16.2252 21.3332C16.2909 21.6056 16.1235 21.8803 15.8509 21.9458C15.8108 21.9557 15.7707 21.96 15.7314 21.96Z" fill="#10003B"/>
<path d="M36.3842 43.5336H19.5202C18.4617 43.5336 17.6038 42.6753 17.6038 41.6164C17.6038 40.5578 18.4617 39.6992 19.5202 39.6992H36.3842C37.4424 39.6992 38.3006 40.5578 38.3006 41.6164C38.3006 42.6753 37.4424 43.5336 36.3842 43.5336Z" fill="#5CBEFF"/>
<path d="M36.3841 44.0415H19.5202C18.1836 44.0415 17.0962 42.9534 17.0962 41.6163C17.0962 40.2792 18.1836 39.1914 19.5202 39.1914H36.3841C37.7207 39.1914 38.8081 40.2792 38.8081 41.6163C38.8081 42.9534 37.7207 44.0415 36.3841 44.0415ZM19.5202 40.2069C18.7431 40.2069 18.1113 40.839 18.1113 41.6163C18.1113 42.3937 18.7431 43.026 19.5202 43.026H36.3841C37.1612 43.026 37.793 42.3937 37.793 41.6163C37.793 40.839 37.1612 40.2069 36.3841 40.2069H19.5202Z" fill="#10003B"/>
<path d="M35.2747 47.3676H20.6294C19.6357 47.3676 18.8302 46.5618 18.8302 45.5677V45.3334C18.8302 44.3392 19.6357 43.5332 20.6294 43.5332H35.2747C36.2684 43.5332 37.0742 44.3392 37.0742 45.3334V45.5677C37.0742 46.5621 36.2684 47.3676 35.2747 47.3676Z" fill="#5CBEFF"/>
<path d="M35.2747 47.8755H20.6294C19.3575 47.8755 18.3226 46.84 18.3226 45.5678V45.3333C18.3226 44.0607 19.3575 43.0254 20.6294 43.0254H35.2747C36.5468 43.0254 37.5816 44.0607 37.5816 45.3333V45.5678C37.5816 46.84 36.5468 47.8755 35.2747 47.8755ZM20.6294 44.0411C19.917 44.0411 19.3377 44.6209 19.3377 45.3335V45.5681C19.3377 46.2804 19.917 46.8603 20.6294 46.8603H35.2747C35.987 46.8603 36.5666 46.2804 36.5666 45.5681V45.3335C36.5666 44.6209 35.987 44.0411 35.2747 44.0411H20.6294Z" fill="#10003B"/>
<path d="M35.35 48.9886V49.5799C35.35 50.477 34.6235 51.2018 33.7287 51.2018H22.1755C21.281 51.2018 20.5542 50.4773 20.5542 49.5799V48.9886C20.5542 48.094 21.281 47.3667 22.1755 47.3667H33.7287C34.6235 47.3667 35.35 48.094 35.35 48.9886Z" fill="#5CBEFF"/>
<path d="M33.7288 51.7095H22.1756C21.0017 51.7095 20.0468 50.7542 20.0468 49.5798V48.9886C20.0468 47.8142 21.0017 46.8589 22.1756 46.8589H33.7288C34.9027 46.8589 35.8576 47.8142 35.8576 48.9886V49.5798C35.8576 50.7542 34.9027 51.7095 33.7288 51.7095ZM22.1756 47.8743C21.5615 47.8743 21.0618 48.3742 21.0618 48.9886V49.5798C21.0618 50.1942 21.5615 50.694 22.1756 50.694H33.7288C34.3429 50.694 34.8425 50.1942 34.8425 49.5798V48.9886C34.8425 48.3742 34.3429 47.8743 33.7288 47.8743H22.1756Z" fill="#10003B"/>
<path d="M30.7507 51.2021C30.7507 52.7482 29.4976 54.0018 27.9522 54.0018C26.4068 54.0018 25.1534 52.7482 25.1534 51.2021H30.7507Z" fill="#5CBEFF"/>
<path d="M27.9523 54.5094C26.1293 54.5094 24.646 53.0258 24.646 51.2021C24.646 50.9218 24.8734 50.6943 25.1535 50.6943H30.7508C31.031 50.6943 31.2584 50.9218 31.2584 51.2021C31.2584 53.0261 29.7751 54.5094 27.9523 54.5094ZM25.7179 51.7098C25.9493 52.7306 26.8634 53.494 27.9523 53.494C29.0412 53.494 29.955 52.7303 30.1865 51.7098H25.7179Z" fill="#10003B"/>
</svg>
