<svg width="55" height="55" viewBox="0 0 55 55" fill="none" xmlns="http://www.w3.org/2000/svg">
<path d="M35.7042 16.5831L35.711 16.5774L35.7173 16.5714C36.2653 16.0464 37.1363 16.0652 37.6612 16.6132L38.938 17.9461C39.4629 18.4941 39.4442 19.365 38.8962 19.8899L38.8899 19.896L38.884 19.9026L13.6906 47.6884C13.1423 48.2073 12.2759 48.1867 11.7529 47.6408L6.82543 42.4968C6.30246 41.9508 6.31911 41.0843 6.86115 40.5588L35.7042 16.5831Z" fill="#FEBE10" stroke="black" stroke-width="0.5"/>
<path d="M37.087 9.95448L35.6393 8.44316C34.6596 7.42048 34.6945 5.79729 35.7172 4.81767C36.7399 3.83804 38.3631 3.87295 39.3427 4.89562L40.7904 6.40694C41.8523 7.51547 41.7088 9.3023 40.4837 10.2272C39.446 11.0106 37.9863 10.8934 37.087 9.95448Z" fill="#58595B" stroke="black" stroke-width="0.5"/>
<path d="M44.8645 23.2604L44.8646 23.26C45.0291 22.3691 45.2279 21.6257 45.4051 20.9923C45.4294 20.9055 45.4534 20.8203 45.4769 20.7369C45.6231 20.218 45.751 19.7645 45.8165 19.3725C45.8931 18.9141 45.893 18.4972 45.713 18.1209C45.5325 17.7434 45.1921 17.45 44.6833 17.1902C44.5026 17.0963 44.3192 17.0311 44.1161 17.0154C43.9123 16.9997 43.7065 17.0352 43.4823 17.117C43.0472 17.2758 42.5032 17.6256 41.7101 18.1885C41.3458 18.4434 40.6987 18.9119 40.0548 19.3812C39.0469 20.1158 37.6512 19.9953 36.7895 19.0958C35.7962 18.0588 35.7607 16.2303 36.4593 14.9009C36.6493 14.5392 36.8301 14.1577 36.9872 13.7707C37.1886 13.2747 37.3699 12.7266 37.5507 12.1678C37.5743 12.0948 37.5979 12.0216 37.6215 11.9484C37.7798 11.4577 37.9398 10.9612 38.1169 10.4764C38.5258 9.35705 39.012 8.33954 39.7266 7.65502L41.076 6.3624C41.1636 6.27848 41.3516 6.17314 41.5654 6.14437C41.7688 6.117 41.976 6.16004 42.1479 6.33948C42.8522 7.07478 43.4463 7.69122 44.1055 8.37529C44.1871 8.46002 44.2698 8.54579 44.3538 8.63296C45.1159 9.42381 45.988 10.3295 47.2196 11.6153C47.4659 11.8724 47.6973 12.1059 47.9137 12.3243C48.3648 12.7794 48.7504 13.1684 49.0682 13.5672C49.5266 14.1423 49.8211 14.7127 49.9159 15.4766C50.012 16.2504 49.9058 17.2425 49.5206 18.6624C49.1359 20.0809 48.4781 21.9079 47.4867 24.3453C47.1199 25.2374 46.6823 25.8108 46.2915 26.136C45.888 26.4717 45.5829 26.5091 45.4475 26.4616C45.1141 26.3371 44.8796 26.0244 44.772 25.4735C44.6637 24.919 44.6956 24.167 44.8645 23.2604Z" fill="#58595B" stroke="black" stroke-width="0.5"/>
<path d="M44.6488 17.2381L44.5694 17.3938L44.6479 17.2383C44.6482 17.2382 44.6485 17.2381 44.6488 17.2381ZM44.6612 17.2138C44.6605 17.2145 44.6599 17.2152 44.6592 17.2159L44.6821 17.1706C44.6824 17.1708 44.6827 17.1709 44.683 17.1711L44.6612 17.2138ZM45.7135 18.1022C45.5443 17.7485 45.2347 17.4685 44.7776 17.2208C44.9378 17.2119 45.0814 17.2531 45.2528 17.3396C45.7115 17.5738 45.9453 17.8023 46.0606 18.0426C46.1765 18.2843 46.1935 18.5811 46.1248 18.9998C46.0646 19.3669 45.9447 19.7954 45.7964 20.3257C45.7742 20.4049 45.7515 20.4863 45.7281 20.5702C45.5505 21.2091 45.3476 21.9699 45.1791 22.8827C45.0051 23.8166 44.9617 24.6396 45.0874 25.283C45.1828 25.7716 45.3824 26.1813 45.7161 26.4417C45.5961 26.4722 45.5069 26.4655 45.4524 26.4446L45.4524 26.4445L45.4496 26.4435C45.1154 26.3195 44.8803 26.0067 44.7725 25.4548C44.6642 24.9003 44.6961 24.1483 44.865 23.2418L44.8651 23.2413C45.0296 22.3504 45.2284 21.6071 45.4056 20.9736C45.4299 20.8868 45.4539 20.8017 45.4774 20.7182C45.6237 20.1993 45.7515 19.7458 45.817 19.3538C45.8936 18.8954 45.8935 18.4786 45.7135 18.1022ZM46.1556 26.4443L46.1682 26.4102L46.1593 26.4503L46.1418 26.5291C46.1343 26.5335 46.1268 26.5378 46.1193 26.542L46.1556 26.4443Z" fill="#333334" stroke="black" stroke-width="0.5"/>
<path d="M35.3003 16.6218C35.826 15.8601 36.3403 15.007 36.7398 14.1599C37.0547 13.4924 37.3404 12.7111 37.6302 11.919C37.8025 11.4477 37.9763 10.9725 38.1585 10.5151C38.6567 9.26424 39.227 8.11564 40.0306 7.34582L40.5256 6.87169C39.8254 7.84148 39.2391 8.9927 38.7013 10.1575C38.4724 10.6534 38.2525 11.1508 38.0363 11.64C37.5136 12.8227 37.0123 13.957 36.4561 14.9026C36.0796 15.5427 35.6729 16.1366 35.3003 16.6218Z" fill="#333334" stroke="black" stroke-width="0.5"/>
<path d="M37.7996 5.0464L35.8002 6.96163C35.0549 7.67558 33.8719 7.65014 33.1579 6.90482C32.444 6.1595 32.4694 4.97653 33.2148 4.26258L35.2142 2.34735C35.9595 1.63341 37.1425 1.65885 37.8564 2.40417C38.5703 3.14949 38.5449 4.33246 37.7996 5.0464Z" fill="#58595B" stroke="black" stroke-width="0.5"/>
<g clip-path="url(#clip0_553_844)">
<path d="M43.8143 38.1112L43.9546 38.2512L49.7952 44.0731C49.8129 43.9738 49.8318 43.8552 49.8495 43.7197C49.9079 43.2728 49.9529 42.6434 49.8993 41.9162C49.7921 40.462 49.2915 38.6249 47.7213 37.0641C46.1506 35.5029 44.2524 34.9514 42.6217 34.8742C41.8061 34.8355 41.0602 34.9158 40.4607 35.0465C39.8553 35.1785 39.4168 35.3579 39.205 35.5055L39.0679 35.6011L38.9495 35.483L20.2229 16.8148L20.1197 16.7119L20.1859 16.5823L20.1859 16.5823L20.186 16.5822L20.1861 16.582L20.187 16.5801L20.1914 16.5713C20.1954 16.5631 20.2015 16.5506 20.2094 16.5337C20.2252 16.5001 20.2484 16.4494 20.2767 16.383C20.3334 16.2503 20.4107 16.0551 20.4919 15.8082C20.6543 15.3142 20.831 14.6159 20.8885 13.7998C21.0031 12.1714 20.6441 10.0747 18.7408 8.18089C17.04 6.48955 15.1664 5.96618 13.7166 5.86406C12.9908 5.81294 12.3713 5.86754 11.9342 5.93473C11.8 5.95535 11.6831 5.97713 11.5858 5.99736L17.4538 11.828L17.5958 11.9692L17.4545 12.1111L12.1005 17.4848L11.9595 17.6263L11.8178 17.4855L5.94853 11.6536C5.92535 11.7497 5.89997 11.8661 5.87548 12.0004C5.79794 12.4257 5.72965 13.0291 5.76748 13.7381C5.843 15.1534 6.34101 16.9913 8.04126 18.6821C11.4333 22.0552 15.481 20.7329 16.5972 20.2137L16.7239 20.1548L16.8228 20.2535L35.5298 38.9216L35.6324 39.024L43.8143 38.1112ZM43.8143 38.1112L43.6731 38.2504L38.2698 43.5749L38.1261 43.7165L38.269 43.859L44.1704 49.7417M43.8143 38.1112L44.1704 49.7417M35.5671 39.1533L35.5672 39.1532L35.5671 39.1533ZM35.5671 39.1533L35.567 39.1535M35.5671 39.1533L35.567 39.1535M44.1704 49.7417C44.0733 49.7629 43.9566 49.786 43.8225 49.8081C43.3895 49.8795 42.7767 49.9407 42.0606 49.8992C40.6303 49.8163 38.7901 49.3243 37.1398 47.6834L44.1704 49.7417ZM34.8877 41.9576C34.791 43.6038 35.1809 45.734 37.1397 47.6834L34.8877 41.9576ZM34.8877 41.9576C34.9362 41.1325 35.1072 40.4286 35.2661 39.9313M34.8877 41.9576L35.2661 39.9313M35.2661 39.9313C35.3454 39.6828 35.4216 39.4865 35.4775 39.3531M35.2661 39.9313L35.4775 39.3531M35.4775 39.3531C35.5055 39.2865 35.5283 39.2356 35.544 39.2018M35.4775 39.3531L35.544 39.2018M35.544 39.2018C35.5518 39.1849 35.5578 39.1723 35.5618 39.1642M35.544 39.2018L35.5618 39.1642M35.5618 39.1642L35.5661 39.1553M35.5618 39.1642L35.5661 39.1553M35.5661 39.1553L35.567 39.1535M35.5661 39.1553L35.567 39.1535" fill="#A7A9AC" stroke="black" stroke-width="0.4"/>
<path d="M36.5952 36.5771C35.8372 37.335 34.5757 37.3173 33.7884 36.53L19.3225 22.0641C18.5353 21.2769 18.5175 20.0153 19.2755 19.2574C20.0334 18.4994 21.295 18.5172 22.0822 19.3044L36.558 33.7802C37.3354 34.5576 37.3628 35.8094 36.5952 36.5771Z" fill="#58595B"/>
</g>
<defs>
<clipPath id="clip0_553_844">
<rect x="1.43481" y="14.4644" width="16.9786" height="56.5027" rx="8.48932" transform="rotate(-45 1.43481 14.4644)" fill="white"/>
</clipPath>
</defs>
</svg>
